<svg width="25" height="25" viewBox="0 0 25 25" fill="none" xmlns="http://www.w3.org/2000/svg">
<path fill-rule="evenodd" clip-rule="evenodd" d="M0 0H24.9895V25H0V0ZM3.12286 20.2898H12.4939V21.8731H3.12286V20.2898ZM11.2449 12.7509L10.2036 11.8342C9.41231 12.3342 8.45438 12.6259 7.41315 12.6259C4.53936 12.6259 2.45691 10.4592 2.45691 7.83423V7.79256C2.45691 5.1259 4.53937 2.95923 7.4548 2.95923C10.3702 2.95923 12.411 5.12589 12.411 7.75089V7.79256C12.411 8.79256 12.1195 9.70923 11.5781 10.4592L12.536 11.2926L11.2449 12.7509ZM8.70428 10.5009L7.16326 9.20923L8.45438 7.75089L9.9954 9.1259C10.162 8.7509 10.2453 8.29256 10.2453 7.83423V7.79256C10.2453 6.20923 9.07912 4.83423 7.41315 4.83423C5.74719 4.83423 4.62266 6.12589 4.62266 7.75089V7.79256C4.62266 9.3759 5.78884 10.7509 7.4548 10.7509C7.91294 10.7509 8.32944 10.6676 8.70428 10.5009ZM17.5753 3.12634H14.0351V12.5013H17.5753C20.4907 12.5013 22.5315 10.4597 22.5315 7.83467V7.79301C22.5315 5.12634 20.5324 3.12634 17.5753 3.12634ZM16.0759 10.6263V4.95968H17.5336C19.2412 4.95968 20.3658 6.12634 20.3658 7.79301V7.83467C20.3658 9.50134 19.1996 10.6263 17.5336 10.6263H16.0759Z" fill="white"/>
</svg>
