<svg width="16" height="16" viewBox="0 0 16 16" fill="none" xmlns="http://www.w3.org/2000/svg">
  <g clip-path="url(#clip0_225_2)">
    <path d="M10.7408 6.97047L3.04336 8.58035C2.84429 8.61355 2.64523 8.64675 2.44616 8.71315C1.83236 8.89571 1.3015 9.26083 0.903365 9.77531C-1.40253 12.7627 1.06925 16.6795 4.60275 15.8995L13.0633 14.6713C13.959 14.4721 14.7221 13.9411 15.2364 13.1776C17.4262 9.90803 14.5894 5.8419 10.7408 6.97047Z" fill="url(#paint0_linear_225_2)"/>
    <path d="M6.51173 1.01238C5.56615 0.149349 4.17265 -0.265565 2.59668 0.182543C1.94971 0.381702 1.36908 0.780021 0.954355 1.32771C-0.621619 3.36909 -0.0907644 5.82539 1.48521 7.08673L9.91251 14.1237C10.7586 14.688 11.8535 14.937 13.0644 14.6714C13.9603 14.4722 14.7234 13.9411 15.2376 13.1777C16.5316 11.2359 16.0671 8.99536 14.657 7.75059L6.51173 1.01238Z" fill="url(#paint1_linear_225_2)"/>
    <path d="M3.67389 0.0165966C3.25916 0.0497898 2.8942 0.09958 2.59559 0.199159C1.94862 0.381722 1.368 0.780041 0.953264 1.32773C-1.50193 4.51428 1.13575 8.66344 4.8849 7.8336L14.9711 4.03298C15.2698 3.96659 15.5186 3.80062 15.6845 3.53508C16.3148 2.58907 15.6678 1.4439 14.6394 1.4439L4.08862 0C3.93932 0 3.80661 -1.63913e-08 3.67389 0.0165966Z" fill="url(#paint2_linear_225_2)"/>
    <path d="M12.9804 3.021H3.02686V12.9789H12.9804V3.021Z" fill="black"/>
    <path d="M8.00308 11.103H4.27051V11.7337H8.00308V11.103Z" fill="white"/>
    <path d="M7.50568 8.10019L7.09095 7.73503C6.77576 7.93419 6.39421 8.05035 5.97947 8.05035C4.83483 8.05035 4.00537 7.18734 4.00537 6.14175V6.12516C4.00537 5.06298 4.83483 4.19995 5.99607 4.19995C7.15731 4.19995 7.97018 5.06298 7.97018 6.10856V6.12516C7.97018 6.52348 7.85406 6.8886 7.63839 7.18734L8.01998 7.51927L7.50568 8.10019ZM6.49375 7.20394L5.87995 6.68944L6.39421 6.10856L7.00801 6.65625C7.07436 6.50688 7.10754 6.32432 7.10754 6.14175V6.12516C7.10754 5.49449 6.64304 4.9468 5.97947 4.9468C5.31591 4.9468 4.868 5.4613 4.868 6.10856V6.12516C4.868 6.75583 5.3325 7.30352 5.99607 7.30352C6.17855 7.30352 6.34444 7.27033 6.49375 7.20394Z" fill="white"/>
    <path d="M8.61719 4.26636H10.0273C11.2051 4.26636 12.0013 5.06299 12.0013 6.12517V6.14177C12.0013 7.18736 11.1885 8.00059 10.0273 8.00059H8.61719V4.26636ZM9.43007 4.99661V7.25374H10.0106C10.6742 7.25374 11.1387 6.80564 11.1387 6.14177V6.12517C11.1387 5.46131 10.6908 4.99661 10.0106 4.99661H9.43007Z" fill="white"/>
  </g>
  <defs>
    <linearGradient id="paint0_linear_225_2" x1="-0.317087" y1="12.5638" x2="12.732" y2="10.6877" gradientUnits="userSpaceOnUse">
      <stop offset="0.1763" stop-color="#FC7A26"/>
      <stop offset="0.6342" stop-color="#FF318C"/>
    </linearGradient>
    <linearGradient id="paint1_linear_225_2" x1="-2.2212" y1="-0.195743" x2="16.345" y2="13.5961" gradientUnits="userSpaceOnUse">
      <stop stop-color="#FF318C"/>
      <stop offset="0.3993" stop-color="#B544C6"/>
      <stop offset="0.8741" stop-color="#FF318C"/>
    </linearGradient>
    <linearGradient id="paint2_linear_225_2" x1="-4.3763" y1="5.91719" x2="16.2034" y2="1.09286" gradientUnits="userSpaceOnUse">
      <stop stop-color="#FF318C"/>
      <stop offset="0.1996" stop-color="#D73BAB"/>
      <stop offset="0.5147" stop-color="#9D4AD8"/>
      <stop offset="0.7481" stop-color="#7953F4"/>
      <stop offset="0.8723" stop-color="#6B57FF"/>
    </linearGradient>
    <clipPath id="clip0_225_2">
      <rect width="16" height="16" fill="white"/>
    </clipPath>
  </defs>
</svg>